<svg id="SvgjsSvg1006" width="1035.0124816894531" height="517.5" xmlns="http://www.w3.org/2000/svg" version="1.1" xmlns:xlink="http://www.w3.org/1999/xlink" xmlns:svgjs="http://svgjs.com/svgjs"><defs id="SvgjsDefs1007"><pattern id="SvgjsPattern1018" x="0" y="0" width="40" height="76" patternUnits="userSpaceOnUse"><image id="SvgjsImage1019" xlink:href="https://www.processon.com/assets/images/designer/network/iphone.svg" width="40" height="76" preserveAspectRatio="none" crossOrigin="anonymous" x="0" y="0"></image></pattern><pattern id="SvgjsPattern1024" x="0" y="0" width="76" height="43" patternUnits="userSpaceOnUse"><image id="SvgjsImage1025" xlink:href="https://www.processon.com/assets/images/designer/network/macbook.svg" width="76" height="43" preserveAspectRatio="none" crossOrigin="anonymous" x="0" y="0"></image></pattern><pattern id="SvgjsPattern1030" x="0" y="0" width="76" height="43" patternUnits="userSpaceOnUse"><image id="SvgjsImage1031" xlink:href="https://www.processon.com/assets/images/designer/network/macbook.svg" width="76" height="43" preserveAspectRatio="none" crossOrigin="anonymous" x="0" y="0"></image></pattern><pattern id="SvgjsPattern1036" x="0" y="0" width="76" height="43" patternUnits="userSpaceOnUse"><image id="SvgjsImage1037" xlink:href="https://www.processon.com/assets/images/designer/network/macbook.svg" width="76" height="43" preserveAspectRatio="none" crossOrigin="anonymous" x="0" y="0"></image></pattern><pattern id="SvgjsPattern1042" x="0" y="0" width="13" height="75" patternUnits="userSpaceOnUse"><image id="SvgjsImage1043" xlink:href="https://www.processon.com/assets/images/designer/network/antenna.svg" width="13" height="75" preserveAspectRatio="none" crossOrigin="anonymous" x="0" y="0"></image></pattern><pattern id="SvgjsPattern1050" x="0" y="0" width="80" height="24" patternUnits="userSpaceOnUse"><image id="SvgjsImage1051" xlink:href="https://www.processon.com/assets/images/designer/network/adsl.svg" width="80" height="24" preserveAspectRatio="none" crossOrigin="anonymous" x="0" y="0"></image></pattern><marker id="SvgjsMarker1058" markerWidth="16" markerHeight="12" refX="16" refY="6" viewBox="0 0 16 12" orient="auto" markerUnits="userSpaceOnUse"><path id="SvgjsPath1059" d="M0,2 L14,6 L0,11 L0,2" fill="#323232" stroke="#323232" stroke-width="2"></path></marker><pattern id="SvgjsPattern1062" x="0" y="0" width="75" height="16" patternUnits="userSpaceOnUse"><image id="SvgjsImage1063" xlink:href="https://www.processon.com/assets/images/designer/network/ethernet.svg" width="75" height="16" preserveAspectRatio="none" crossOrigin="anonymous" x="0" y="0"></image></pattern><marker id="SvgjsMarker1070" markerWidth="16" markerHeight="12" refX="16" refY="6" viewBox="0 0 16 12" orient="auto" markerUnits="userSpaceOnUse"><path id="SvgjsPath1071" d="M0,2 L14,6 L0,11 L0,2" fill="#323232" stroke="#323232" stroke-width="2"></path></marker><marker id="SvgjsMarker1074" markerWidth="16" markerHeight="12" refX="16" refY="6" viewBox="0 0 16 12" orient="auto" markerUnits="userSpaceOnUse"><path id="SvgjsPath1075" d="M0,2 L14,6 L0,11 L0,2" fill="#323232" stroke="#323232" stroke-width="2"></path></marker><marker id="SvgjsMarker1078" markerWidth="16" markerHeight="12" refX="16" refY="6" viewBox="0 0 16 12" orient="auto" markerUnits="userSpaceOnUse"><path id="SvgjsPath1079" d="M0,2 L14,6 L0,11 L0,2" fill="#323232" stroke="#323232" stroke-width="2"></path></marker><marker id="SvgjsMarker1082" markerWidth="16" markerHeight="12" refX="16" refY="6" viewBox="0 0 16 12" orient="auto" markerUnits="userSpaceOnUse"><path id="SvgjsPath1083" d="M0,2 L14,6 L0,11 L0,2" fill="#323232" stroke="#323232" stroke-width="2"></path></marker><pattern id="SvgjsPattern1086" x="0" y="0" width="80" height="58" patternUnits="userSpaceOnUse"><image id="SvgjsImage1087" xlink:href="https://www.processon.com/assets/images/designer/network/accessPoint.svg" width="80" height="58" preserveAspectRatio="none" crossOrigin="anonymous" x="0" y="0"></image></pattern><marker id="SvgjsMarker1094" markerWidth="16" markerHeight="12" refX="16" refY="6" viewBox="0 0 16 12" orient="auto" markerUnits="userSpaceOnUse"><path id="SvgjsPath1095" d="M0,2 L14,6 L0,11 L0,2" fill="#323232" stroke="#323232" stroke-width="2"></path></marker><pattern id="SvgjsPattern1098" x="0" y="0" width="76" height="43" patternUnits="userSpaceOnUse"><image id="SvgjsImage1099" xlink:href="https://www.processon.com/assets/images/designer/network/macbook.svg" width="76" height="43" preserveAspectRatio="none" crossOrigin="anonymous" x="0" y="0"></image></pattern><marker id="SvgjsMarker1104" markerWidth="16" markerHeight="12" refX="16" refY="6" viewBox="0 0 16 12" orient="auto" markerUnits="userSpaceOnUse"><path id="SvgjsPath1105" d="M0,2 L14,6 L0,11 L0,2" fill="#323232" stroke="#323232" stroke-width="2"></path></marker><pattern id="SvgjsPattern1108" x="0" y="0" width="47" height="78" patternUnits="userSpaceOnUse"><image id="SvgjsImage1109" xlink:href="https://www.processon.com/assets/images/designer/network/signal.svg" width="47" height="78" preserveAspectRatio="none" crossOrigin="anonymous" x="0" y="0"></image></pattern></defs><g id="SvgjsG1008" transform="translate(448.0124816894531,258.5)"><path id="SvgjsPath1009" d="M 0 4Q 0 0 4 0L 558 0Q 562 0 562 4L 562 191Q 562 195 558 195L 4 195Q 0 195 0 191Z" stroke="#323232" stroke-width="2" fill-opacity="1" fill="#6666ff"></path><g id="SvgjsG1010"><text id="SvgjsText1011" font-family="微软雅黑" text-anchor="middle" font-size="13px" width="0" fill="#323232" font-weight="400" align="middle" anchor="middle" family="微软雅黑" size="13px" weight="400" font-style="" y="87.55" transform="rotate(0)"></text></g></g><g id="SvgjsG1012" transform="translate(25.012481689453125,312.5)"><path id="SvgjsPath1013" d="M 0 4Q 0 0 4 0L 259 0Q 263 0 263 4L 263 176Q 263 180 259 180L 4 180Q 0 180 0 176Z" stroke="#323232" stroke-width="2" fill-opacity="1" fill="#99ff99"></path><g id="SvgjsG1014"><text id="SvgjsText1015" font-family="微软雅黑" text-anchor="middle" font-size="13px" width="0" fill="#323232" font-weight="400" align="middle" anchor="middle" family="微软雅黑" size="13px" weight="400" font-style="" y="80.05" transform="rotate(0)"></text></g></g><g id="SvgjsG1016" transform="translate(133.01248168945312,351.5)"><path id="SvgjsPath1017" d="M 0 0L 40 0L 40 76L 0 76Z" stroke="none" fill="url(#SvgjsPattern1018)"></path><g id="SvgjsG1020"><text id="SvgjsText1021" font-family="微软雅黑" text-anchor="middle" font-size="13px" width="0" fill="#323232" font-weight="400" align="middle" anchor="middle" family="微软雅黑" size="13px" weight="400" font-style="" y="81.05" transform="rotate(0)"></text></g></g><g id="SvgjsG1022" transform="translate(465.0124816894531,362)"><path id="SvgjsPath1023" d="M 0 0L 76 0L 76 43L 0 43Z" stroke="none" fill="url(#SvgjsPattern1024)"></path><g id="SvgjsG1026"><text id="SvgjsText1027" font-family="微软雅黑" text-anchor="middle" font-size="13px" width="0" fill="#323232" font-weight="400" align="middle" anchor="middle" family="微软雅黑" size="13px" weight="400" font-style="" y="48.05" transform="rotate(0)"></text></g></g><g id="SvgjsG1028" transform="translate(626.0124816894531,368)"><path id="SvgjsPath1029" d="M 0 0L 76 0L 76 43L 0 43Z" stroke="none" fill="url(#SvgjsPattern1030)"></path><g id="SvgjsG1032"><text id="SvgjsText1033" font-family="微软雅黑" text-anchor="middle" font-size="13px" width="0" fill="#323232" font-weight="400" align="middle" anchor="middle" family="微软雅黑" size="13px" weight="400" font-style="" y="48.05" transform="rotate(0)"></text></g></g><g id="SvgjsG1034" transform="translate(810.0124816894531,368)"><path id="SvgjsPath1035" d="M 0 0L 76 0L 76 43L 0 43Z" stroke="none" fill="url(#SvgjsPattern1036)"></path><g id="SvgjsG1038"><text id="SvgjsText1039" font-family="微软雅黑" text-anchor="middle" font-size="13px" width="0" fill="#323232" font-weight="400" align="middle" anchor="middle" family="微软雅黑" size="13px" weight="400" font-style="" y="48.05" transform="rotate(0)"></text></g></g><g id="SvgjsG1040" transform="translate(105.51248168945312,25)"><path id="SvgjsPath1041" d="M 0 0L 13 0L 13 75L 0 75Z" stroke="none" fill="url(#SvgjsPattern1042)"></path><g id="SvgjsG1044"><text id="SvgjsText1045" font-family="微软雅黑" text-anchor="middle" font-size="13px" width="52" fill="#323232" font-weight="400" align="middle" anchor="middle" family="微软雅黑" size="13px" weight="400" font-style="" y="80.05" transform="rotate(0)"><tspan id="SvgjsTspan1046" dy="16" x="6.5"><tspan id="SvgjsTspan1047" style="text-decoration:;">电信接入</tspan></tspan></text></g></g><g id="SvgjsG1048" transform="translate(296.0124816894531,94)"><path id="SvgjsPath1049" d="M 0 0L 80 0L 80 24L 0 24Z" stroke="none" fill="url(#SvgjsPattern1050)"></path><g id="SvgjsG1052"><text id="SvgjsText1053" font-family="微软雅黑" text-anchor="middle" font-size="13px" width="65" fill="#323232" font-weight="400" align="middle" anchor="middle" family="微软雅黑" size="13px" weight="400" font-style="" y="29.05" transform="rotate(0)"><tspan id="SvgjsTspan1054" dy="16" x="40"><tspan id="SvgjsTspan1055" style="text-decoration:;">光猫带路由</tspan></tspan></text></g></g><g id="SvgjsG1056"><path id="SvgjsPath1057" d="M118.51248168945312 62.5L336.0124816894531 62.5L336.0124816894531 94" stroke="#323232" stroke-width="2" fill="none" marker-end="url(#SvgjsMarker1058)"></path></g><g id="SvgjsG1060" transform="translate(298.5124816894531,181.5)"><path id="SvgjsPath1061" d="M 0 0L 75 0L 75 16L 0 16Z" stroke="none" fill="url(#SvgjsPattern1062)"></path><g id="SvgjsG1064"><text id="SvgjsText1065" font-family="微软雅黑" text-anchor="middle" font-size="13px" width="65" fill="#323232" font-weight="400" align="middle" anchor="middle" family="微软雅黑" size="13px" weight="400" font-style="" y="21.05" transform="rotate(0)"><tspan id="SvgjsTspan1066" dy="16" x="37.5"><tspan id="SvgjsTspan1067" style="text-decoration:;">千兆交换机</tspan></tspan></text></g></g><g id="SvgjsG1068"><path id="SvgjsPath1069" d="M336.0124816894531 197.5L336.0124816894531 279.75L503.0124816894531 279.75L503.0124816894531 362" stroke="#323232" stroke-width="2" fill="none" marker-end="url(#SvgjsMarker1070)"></path></g><g id="SvgjsG1072"><path id="SvgjsPath1073" d="M336.0124816894531 197.5L336.0124816894531 282.75L664.0124816894531 282.75L664.0124816894531 368" stroke="#323232" stroke-width="2" fill="none" marker-end="url(#SvgjsMarker1074)"></path></g><g id="SvgjsG1076"><path id="SvgjsPath1077" d="M336.0124816894531 197.5L336.0124816894531 282.75L848.0124816894531 282.75L848.0124816894531 368" stroke="#323232" stroke-width="2" fill="none" marker-end="url(#SvgjsMarker1078)"></path></g><g id="SvgjsG1080"><path id="SvgjsPath1081" d="M336.0124816894531 118L336.0124816894531 149.75L336.0124816894531 149.75L336.0124816894531 181.5" stroke="#323232" stroke-width="2" fill="none" marker-end="url(#SvgjsMarker1082)"></path></g><g id="SvgjsG1084" transform="translate(296.0124816894531,364.5)"><path id="SvgjsPath1085" d="M 0 0L 80 0L 80 58L 0 58Z" stroke="none" fill="url(#SvgjsPattern1086)"></path><g id="SvgjsG1088"><text id="SvgjsText1089" font-family="微软雅黑" text-anchor="middle" font-size="13px" width="78" fill="#323232" font-weight="400" align="middle" anchor="middle" family="微软雅黑" size="13px" weight="400" font-style="" y="63.05" transform="rotate(0)"><tspan id="SvgjsTspan1090" dy="16" x="40"><tspan id="SvgjsTspan1091" style="text-decoration:;">千兆无线路由</tspan></tspan></text></g></g><g id="SvgjsG1092"><path id="SvgjsPath1093" d="M336.0124816894531 197.5L336.0124816894531 281L336.0124816894531 281L336.0124816894531 364.5" stroke="#323232" stroke-width="2" fill="none" marker-end="url(#SvgjsMarker1094)"></path></g><g id="SvgjsG1096" transform="translate(926.0124816894531,364.5)"><path id="SvgjsPath1097" d="M 0 0L 76 0L 76 43L 0 43Z" stroke="none" fill="url(#SvgjsPattern1098)"></path><g id="SvgjsG1100"><text id="SvgjsText1101" font-family="微软雅黑" text-anchor="middle" font-size="13px" width="0" fill="#323232" font-weight="400" align="middle" anchor="middle" family="微软雅黑" size="13px" weight="400" font-style="" y="48.05" transform="rotate(0)"></text></g></g><g id="SvgjsG1102"><path id="SvgjsPath1103" d="M336.0124816894531 197.5L336.0124816894531 281L964.0124816894531 281L964.0124816894531 364.5" stroke="#323232" stroke-width="2" fill="none" marker-end="url(#SvgjsMarker1104)"></path></g><g id="SvgjsG1106" transform="translate(219.51248168945312,354.5)"><path id="SvgjsPath1107" d="M 0 0L 47 0L 47 78L 0 78Z" stroke="none" fill="url(#SvgjsPattern1108)"></path><g id="SvgjsG1110"><text id="SvgjsText1111" font-family="微软雅黑" text-anchor="middle" font-size="13px" width="0" fill="#323232" font-weight="400" align="middle" anchor="middle" family="微软雅黑" size="13px" weight="400" font-style="" y="83.05" transform="rotate(0)"></text></g></g></svg>