<svg id="SvgjsSvg1304" width="1035.0124816894531" height="517.5" xmlns="http://www.w3.org/2000/svg" version="1.1" xmlns:xlink="http://www.w3.org/1999/xlink" xmlns:svgjs="http://svgjs.com/svgjs"><defs id="SvgjsDefs1305"><pattern id="SvgjsPattern1316" x="0" y="0" width="40" height="76" patternUnits="userSpaceOnUse"><image id="SvgjsImage1317" xlink:href="https://www.processon.com/assets/images/designer/network/iphone.svg" width="40" height="76" preserveAspectRatio="none" crossOrigin="anonymous" x="0" y="0"></image></pattern><pattern id="SvgjsPattern1322" x="0" y="0" width="76" height="43" patternUnits="userSpaceOnUse"><image id="SvgjsImage1323" xlink:href="https://www.processon.com/assets/images/designer/network/macbook.svg" width="76" height="43" preserveAspectRatio="none" crossOrigin="anonymous" x="0" y="0"></image></pattern><pattern id="SvgjsPattern1328" x="0" y="0" width="76" height="43" patternUnits="userSpaceOnUse"><image id="SvgjsImage1329" xlink:href="https://www.processon.com/assets/images/designer/network/macbook.svg" width="76" height="43" preserveAspectRatio="none" crossOrigin="anonymous" x="0" y="0"></image></pattern><pattern id="SvgjsPattern1334" x="0" y="0" width="76" height="43" patternUnits="userSpaceOnUse"><image id="SvgjsImage1335" xlink:href="https://www.processon.com/assets/images/designer/network/macbook.svg" width="76" height="43" preserveAspectRatio="none" crossOrigin="anonymous" x="0" y="0"></image></pattern><pattern id="SvgjsPattern1340" x="0" y="0" width="13" height="75" patternUnits="userSpaceOnUse"><image id="SvgjsImage1341" xlink:href="https://www.processon.com/assets/images/designer/network/antenna.svg" width="13" height="75" preserveAspectRatio="none" crossOrigin="anonymous" x="0" y="0"></image></pattern><marker id="SvgjsMarker1348" markerWidth="16" markerHeight="12" refX="16" refY="6" viewBox="0 0 16 12" orient="auto" markerUnits="userSpaceOnUse"><path id="SvgjsPath1349" d="M0,2 L14,6 L0,11 L0,2" fill="#323232" stroke="#323232" stroke-width="2"></path></marker><marker id="SvgjsMarker1352" markerWidth="16" markerHeight="12" refX="16" refY="6" viewBox="0 0 16 12" orient="auto" markerUnits="userSpaceOnUse"><path id="SvgjsPath1353" d="M0,2 L14,6 L0,11 L0,2" fill="#323232" stroke="#323232" stroke-width="2"></path></marker><marker id="SvgjsMarker1356" markerWidth="16" markerHeight="12" refX="16" refY="6" viewBox="0 0 16 12" orient="auto" markerUnits="userSpaceOnUse"><path id="SvgjsPath1357" d="M0,2 L14,6 L0,11 L0,2" fill="#323232" stroke="#323232" stroke-width="2"></path></marker><marker id="SvgjsMarker1360" markerWidth="16" markerHeight="12" refX="16" refY="6" viewBox="0 0 16 12" orient="auto" markerUnits="userSpaceOnUse"><path id="SvgjsPath1361" d="M0,2 L14,6 L0,11 L0,2" fill="#323232" stroke="#323232" stroke-width="2"></path></marker><pattern id="SvgjsPattern1364" x="0" y="0" width="80" height="58" patternUnits="userSpaceOnUse"><image id="SvgjsImage1365" xlink:href="https://www.processon.com/assets/images/designer/network/accessPoint.svg" width="80" height="58" preserveAspectRatio="none" crossOrigin="anonymous" x="0" y="0"></image></pattern><marker id="SvgjsMarker1372" markerWidth="16" markerHeight="12" refX="16" refY="6" viewBox="0 0 16 12" orient="auto" markerUnits="userSpaceOnUse"><path id="SvgjsPath1373" d="M0,2 L14,6 L0,11 L0,2" fill="#323232" stroke="#323232" stroke-width="2"></path></marker><pattern id="SvgjsPattern1376" x="0" y="0" width="76" height="43" patternUnits="userSpaceOnUse"><image id="SvgjsImage1377" xlink:href="https://www.processon.com/assets/images/designer/network/macbook.svg" width="76" height="43" preserveAspectRatio="none" crossOrigin="anonymous" x="0" y="0"></image></pattern><marker id="SvgjsMarker1382" markerWidth="16" markerHeight="12" refX="16" refY="6" viewBox="0 0 16 12" orient="auto" markerUnits="userSpaceOnUse"><path id="SvgjsPath1383" d="M0,2 L14,6 L0,11 L0,2" fill="#323232" stroke="#323232" stroke-width="2"></path></marker><pattern id="SvgjsPattern1386" x="0" y="0" width="47" height="78" patternUnits="userSpaceOnUse"><image id="SvgjsImage1387" xlink:href="https://www.processon.com/assets/images/designer/network/signal.svg" width="47" height="78" preserveAspectRatio="none" crossOrigin="anonymous" x="0" y="0"></image></pattern></defs><g id="SvgjsG1306" transform="translate(448.0124816894531,258.5)"><path id="SvgjsPath1307" d="M 0 4Q 0 0 4 0L 558 0Q 562 0 562 4L 562 191Q 562 195 558 195L 4 195Q 0 195 0 191Z" stroke="#323232" stroke-width="2" fill-opacity="1" fill="#6666ff"></path><g id="SvgjsG1308"><text id="SvgjsText1309" font-family="微软雅黑" text-anchor="middle" font-size="13px" width="0" fill="#323232" font-weight="400" align="middle" anchor="middle" family="微软雅黑" size="13px" weight="400" font-style="" y="87.55" transform="rotate(0)"></text></g></g><g id="SvgjsG1310" transform="translate(25.012481689453125,312.5)"><path id="SvgjsPath1311" d="M 0 4Q 0 0 4 0L 259 0Q 263 0 263 4L 263 176Q 263 180 259 180L 4 180Q 0 180 0 176Z" stroke="#323232" stroke-width="2" fill-opacity="1" fill="#99ff99"></path><g id="SvgjsG1312"><text id="SvgjsText1313" font-family="微软雅黑" text-anchor="middle" font-size="13px" width="0" fill="#323232" font-weight="400" align="middle" anchor="middle" family="微软雅黑" size="13px" weight="400" font-style="" y="80.05" transform="rotate(0)"></text></g></g><g id="SvgjsG1314" transform="translate(133.01248168945312,351.5)"><path id="SvgjsPath1315" d="M 0 0L 40 0L 40 76L 0 76Z" stroke="none" fill="url(#SvgjsPattern1316)"></path><g id="SvgjsG1318"><text id="SvgjsText1319" font-family="微软雅黑" text-anchor="middle" font-size="13px" width="0" fill="#323232" font-weight="400" align="middle" anchor="middle" family="微软雅黑" size="13px" weight="400" font-style="" y="81.05" transform="rotate(0)"></text></g></g><g id="SvgjsG1320" transform="translate(465.0124816894531,362)"><path id="SvgjsPath1321" d="M 0 0L 76 0L 76 43L 0 43Z" stroke="none" fill="url(#SvgjsPattern1322)"></path><g id="SvgjsG1324"><text id="SvgjsText1325" font-family="微软雅黑" text-anchor="middle" font-size="13px" width="0" fill="#323232" font-weight="400" align="middle" anchor="middle" family="微软雅黑" size="13px" weight="400" font-style="" y="48.05" transform="rotate(0)"></text></g></g><g id="SvgjsG1326" transform="translate(626.0124816894531,368)"><path id="SvgjsPath1327" d="M 0 0L 76 0L 76 43L 0 43Z" stroke="none" fill="url(#SvgjsPattern1328)"></path><g id="SvgjsG1330"><text id="SvgjsText1331" font-family="微软雅黑" text-anchor="middle" font-size="13px" width="0" fill="#323232" font-weight="400" align="middle" anchor="middle" family="微软雅黑" size="13px" weight="400" font-style="" y="48.05" transform="rotate(0)"></text></g></g><g id="SvgjsG1332" transform="translate(810.0124816894531,368)"><path id="SvgjsPath1333" d="M 0 0L 76 0L 76 43L 0 43Z" stroke="none" fill="url(#SvgjsPattern1334)"></path><g id="SvgjsG1336"><text id="SvgjsText1337" font-family="微软雅黑" text-anchor="middle" font-size="13px" width="0" fill="#323232" font-weight="400" align="middle" anchor="middle" family="微软雅黑" size="13px" weight="400" font-style="" y="48.05" transform="rotate(0)"></text></g></g><g id="SvgjsG1338" transform="translate(105.51248168945312,25)"><path id="SvgjsPath1339" d="M 0 0L 13 0L 13 75L 0 75Z" stroke="none" fill="url(#SvgjsPattern1340)"></path><g id="SvgjsG1342"><text id="SvgjsText1343" font-family="微软雅黑" text-anchor="middle" font-size="13px" width="52" fill="#323232" font-weight="400" align="middle" anchor="middle" family="微软雅黑" size="13px" weight="400" font-style="" y="80.05" transform="rotate(0)"><tspan id="SvgjsTspan1344" dy="16" x="6.5"><tspan id="SvgjsTspan1345" style="text-decoration:;">电信接入</tspan></tspan></text></g></g><g id="SvgjsG1346"><path id="SvgjsPath1347" d="M118.51248168945312 62.5L336.0124816894531 62.5L336.0124816894531 202.5" stroke="#323232" stroke-width="2" fill="none" marker-end="url(#SvgjsMarker1348)"></path></g><g id="SvgjsG1350"><path id="SvgjsPath1351" d="M336.0124816894531 197.5L336.0124816894531 279.75L503.0124816894531 279.75L503.0124816894531 362" stroke="#323232" stroke-width="2" fill="none" marker-end="url(#SvgjsMarker1352)"></path></g><g id="SvgjsG1354"><path id="SvgjsPath1355" d="M336.0124816894531 197.5L336.0124816894531 282.75L664.0124816894531 282.75L664.0124816894531 368" stroke="#323232" stroke-width="2" fill="none" marker-end="url(#SvgjsMarker1356)"></path></g><g id="SvgjsG1358"><path id="SvgjsPath1359" d="M336.0124816894531 197.5L336.0124816894531 282.75L848.0124816894531 282.75L848.0124816894531 368" stroke="#323232" stroke-width="2" fill="none" marker-end="url(#SvgjsMarker1360)"></path></g><g id="SvgjsG1362" transform="translate(296.0124816894531,364.5)"><path id="SvgjsPath1363" d="M 0 0L 80 0L 80 58L 0 58Z" stroke="none" fill="url(#SvgjsPattern1364)"></path><g id="SvgjsG1366"><text id="SvgjsText1367" font-family="微软雅黑" text-anchor="middle" font-size="13px" width="78" fill="#323232" font-weight="400" align="middle" anchor="middle" family="微软雅黑" size="13px" weight="400" font-style="" y="63.05" transform="rotate(0)"><tspan id="SvgjsTspan1368" dy="16" x="40"><tspan id="SvgjsTspan1369" style="text-decoration:;">千兆无线路由</tspan></tspan></text></g></g><g id="SvgjsG1370"><path id="SvgjsPath1371" d="M336.0124816894531 197.5L336.0124816894531 281L336.0124816894531 281L336.0124816894531 364.5" stroke="#323232" stroke-width="2" fill="none" marker-end="url(#SvgjsMarker1372)"></path></g><g id="SvgjsG1374" transform="translate(926.0124816894531,364.5)"><path id="SvgjsPath1375" d="M 0 0L 76 0L 76 43L 0 43Z" stroke="none" fill="url(#SvgjsPattern1376)"></path><g id="SvgjsG1378"><text id="SvgjsText1379" font-family="微软雅黑" text-anchor="middle" font-size="13px" width="0" fill="#323232" font-weight="400" align="middle" anchor="middle" family="微软雅黑" size="13px" weight="400" font-style="" y="48.05" transform="rotate(0)"></text></g></g><g id="SvgjsG1380"><path id="SvgjsPath1381" d="M336.0124816894531 197.5L336.0124816894531 281L964.0124816894531 281L964.0124816894531 364.5" stroke="#323232" stroke-width="2" fill="none" marker-end="url(#SvgjsMarker1382)"></path></g><g id="SvgjsG1384" transform="translate(219.51248168945312,354.5)"><path id="SvgjsPath1385" d="M 0 0L 47 0L 47 78L 0 78Z" stroke="none" fill="url(#SvgjsPattern1386)"></path><g id="SvgjsG1388"><text id="SvgjsText1389" font-family="微软雅黑" text-anchor="middle" font-size="13px" width="0" fill="#323232" font-weight="400" align="middle" anchor="middle" family="微软雅黑" size="13px" weight="400" font-style="" y="83.05" transform="rotate(0)"></text></g></g></svg>